<svg width="256" height="256" viewBox="0 0 256 256" fill="none" xmlns="http://www.w3.org/2000/svg">
<g clip-path="url(#clip0_2_18)">
<rect width="256" height="256" rx="128" fill="#018B51"/>
<path d="M188.387 55.11C187.649 55.3197 187.196 55.5798 186.676 56.0998C185.979 56.8044 185.677 57.4335 185.409 58.7671C185.023 60.6712 184.621 61.8706 183.849 63.4056C181.97 67.1466 178.934 69.8727 174.832 71.4999C172.752 72.3303 170.151 72.8923 167.383 73.1104C166.788 73.1523 163.995 73.1943 161.168 73.1943H156.035L155.875 72.8336C155.179 71.265 153.544 69.7888 151.774 69.1261C150.549 68.6648 149.064 68.539 147.773 68.7822C145.617 69.1932 143.587 70.7114 142.623 72.6155L142.337 73.1943H134.721H127.105L126.87 72.7078C125.922 70.7702 123.934 69.2603 121.703 68.7906C120.923 68.6313 119.598 68.6313 118.793 68.799C116.578 69.252 114.649 70.7114 113.659 72.6826L113.399 73.1943L89.7203 73.211L66.0498 73.2362L65.5633 73.4123C63.9025 74.0247 62.9211 75.4757 63.005 77.212C63.0805 78.747 64.0031 79.9884 65.4962 80.5672L66.0498 80.7853L89.4351 80.8104L112.812 80.8272V94.4155V108.004L113.382 107.635C115.144 106.494 117.224 105.798 119.254 105.664L120.068 105.613L120.269 105.236C121.041 103.785 122.131 102.124 123.205 100.79C123.96 99.8341 125.989 97.7875 127.013 96.9403L127.742 96.328V88.5776V80.8272H134.746H141.75V85.7425V90.6494L142.782 90.5823C144.158 90.49 146.523 90.5152 147.706 90.6326C150.507 90.9094 153.527 91.6643 155.942 92.7044C156.312 92.8638 156.63 92.9896 156.647 92.9896C156.664 92.9896 156.681 90.2552 156.681 86.9168V80.8524L161.948 80.802C168.222 80.7433 169.489 80.6511 172.576 80.0304C179.328 78.6715 184.637 75.4506 188.437 70.3843C189.997 68.3125 191.473 65.3264 192.287 62.6088C192.631 61.4513 193 59.5388 193 58.893C193 57.727 192.589 56.7541 191.767 56.0075C190.853 55.1604 189.502 54.7997 188.387 55.11Z" fill="white"/>
<path d="M89.7035 55.9236C89.3344 55.9656 88.5627 56.0914 88.0007 56.2088C85.2747 56.7792 83.2448 57.8025 81.6092 59.4381C79.9484 61.0906 78.8748 63.1959 78.4637 65.6032C78.2708 66.702 78.2708 68.7487 78.4554 69.8643C78.707 71.3657 78.8831 71.567 79.9652 71.5334C81.4414 71.4915 83.4545 71.0553 84.9224 70.4682C88.6214 68.9835 91.0539 65.9052 91.7333 61.8706C91.9011 60.8557 91.9179 58.5826 91.7669 57.4502C91.6411 56.4772 91.4733 56.1333 91.0455 55.9488C90.7352 55.823 90.6932 55.823 89.7035 55.9236Z" fill="white"/>
<path d="M75.9307 83.2177C72.0388 83.83 69.2204 86.0444 68.1049 89.3828C67.7442 90.4648 67.5848 91.5217 67.5764 92.9476C67.5764 94.5581 67.6771 95.2207 67.979 95.4808C68.1803 95.6569 68.281 95.6737 69.103 95.6737C72.2317 95.6737 75.1758 94.2813 76.9205 91.9663C78.1871 90.2803 78.7658 88.3763 78.791 85.8599C78.7994 84.1404 78.7239 83.5532 78.4639 83.2932C78.2793 83.1087 78.1954 83.0919 77.4405 83.1003C76.9876 83.1087 76.3082 83.159 75.9307 83.2177Z" fill="white"/>
<path d="M82.1209 83.31C81.7183 83.6707 81.5841 84.5178 81.5841 86.6568C81.5841 89.1647 81.8777 90.6074 82.7752 92.4444C83.7398 94.4071 85.2328 96.0008 87.1872 97.1332C88.9235 98.1313 91.3224 98.7772 93.3523 98.7772C94.2246 98.7772 94.4343 98.7017 94.644 98.2907C95.0298 97.519 95.1221 94.08 94.795 92.4276C94.0736 88.7957 92.1025 86.1703 88.9067 84.5598C87.3214 83.7629 85.1993 83.2093 83.3623 83.1171L82.3977 83.0667L82.1209 83.31Z" fill="white"/>
<path d="M144.057 93.4677C141.499 93.5516 138.504 94.1471 136.08 95.0446C134.159 95.7576 131.836 97.0158 130.133 98.2572C126.761 100.715 123.792 104.355 122.248 107.928L121.938 108.658L120.579 108.616C119.044 108.566 118.113 108.708 116.822 109.187C112.384 110.814 109.759 115.637 110.682 120.418C111.579 125.031 115.605 128.386 120.235 128.386C120.688 128.386 122.081 128.202 122.5 128.093C122.643 128.051 122.735 128.168 123.079 128.823C124.656 131.8 127.298 134.786 130.292 136.95L131.056 137.504L131.081 151.176L131.098 164.857L130.578 165.293C129.345 166.325 127.81 167.138 126.442 167.482C123.314 168.271 119.061 166.66 116.57 163.741C114.657 161.502 113.944 159.639 112.644 153.55C111.47 148.014 110.455 144.801 109.004 142.017C107.729 139.567 106.454 137.806 104.659 136.019C102.235 133.595 99.1902 131.867 95.9106 131.037C92.3122 130.131 88.1602 130.215 84.4192 131.255C79.2355 132.698 75.1506 136.103 72.802 140.926C71.3677 143.887 70.7051 146.798 70.7051 150.195C70.7051 153.374 71.309 156.184 72.5336 158.667C73.515 160.654 74.3202 161.627 75.4274 162.147C78.5561 163.632 82.0706 161.023 81.5254 157.618C81.4248 156.981 81.106 156.209 80.6866 155.597C79.16 153.391 78.7574 149.784 79.6885 146.714C79.9653 145.816 80.6866 144.365 81.257 143.568C82.1629 142.31 83.6559 141.002 84.8973 140.373C88.2525 138.678 92.5554 138.603 95.7428 140.188C98.0495 141.337 100.088 143.468 101.438 146.143C101.874 147.016 102.537 148.71 102.873 149.826C103.317 151.302 103.602 152.485 104.382 156.108C104.777 157.945 105.154 159.656 105.229 159.916C106.538 164.597 108.014 167.264 110.883 170.141C112.963 172.23 115.471 173.916 118.055 174.964C123.305 177.103 128.665 176.742 134.335 173.89C134.99 173.555 135.87 173.068 136.29 172.808L137.053 172.322L137.783 172.75C138.613 173.228 139.704 173.723 142.044 174.687C145.508 176.113 146.909 176.801 148.293 177.732C150.188 178.999 151.656 180.609 152.663 182.513C154.533 186.019 154.743 189.685 153.342 194.273C153.074 195.162 153.04 195.38 153.04 196.202C153.032 196.965 153.065 197.209 153.225 197.628C153.77 199.037 154.869 200.027 156.303 200.396C158.115 200.857 160.296 199.851 161.109 198.165C161.655 197.049 162.451 193.904 162.779 191.631C162.988 190.138 162.988 186.606 162.779 185.256C162.41 182.907 161.822 181.054 160.757 178.839C159.256 175.727 157.57 173.27 155.389 171.013L154.886 170.493L155.548 170.779C160.916 173.035 164.406 176.751 165.614 181.473C166.016 183.058 166.109 183.83 166.109 185.843C166.1 187.336 166.067 187.99 165.924 188.963C165.706 190.423 165.698 190.926 165.865 191.572C166.318 193.3 167.736 194.583 169.472 194.835C171.603 195.137 173.725 193.677 174.236 191.547C174.572 190.155 174.748 188.225 174.748 185.843C174.748 182.865 174.53 181.188 173.825 178.713C172.383 173.698 169.338 169.437 164.842 166.148C163.114 164.882 160.271 163.347 158.065 162.483C157.511 162.273 156.974 162.064 156.874 162.022L156.681 161.938V150.371V138.796L157.293 138.443C159.231 137.336 160.724 136.221 162.384 134.644C165.538 131.641 167.929 127.606 168.969 123.513C170.177 118.791 169.95 113.926 168.323 109.514C166.159 103.634 161.848 98.8695 156.152 96.0595C152.378 94.1974 148.284 93.3251 144.057 93.4677ZM138.663 107.039C140.668 107.459 142.228 108.289 143.596 109.681C143.99 110.076 144.443 110.596 144.602 110.839C144.761 111.082 144.921 111.275 144.954 111.275C144.988 111.275 145.181 111.04 145.391 110.747C146.389 109.346 148.234 107.979 149.886 107.4C151.17 106.955 153.2 106.779 154.466 107.006C157.813 107.601 160.598 109.933 161.797 113.146C162.217 114.278 162.342 115.024 162.334 116.518C162.334 117.792 162.309 118.036 162.116 118.791C161.747 120.191 161.336 121.072 160.556 122.171C159.44 123.731 157.477 125.157 155.733 125.66C155.263 125.794 155.246 125.811 155.297 126.021C155.615 127.271 155.674 128.512 155.473 129.494C154.902 132.178 152.621 134.56 149.475 135.742C146.884 136.715 143.554 136.774 140.861 135.885C138.94 135.256 137.112 134.048 136.005 132.673C134.503 130.81 133.95 128.328 134.579 126.239C134.646 126.021 134.688 125.828 134.679 125.828C134.671 125.82 134.361 125.711 133.991 125.585C130.989 124.545 128.732 122.112 127.86 118.992C127.675 118.329 127.633 117.96 127.6 116.811C127.566 115.62 127.583 115.31 127.734 114.572C128.514 110.805 131.391 107.861 135.048 107.09C136.046 106.88 137.783 106.855 138.663 107.039Z" fill="white"/>
<path d="M135.988 114.949C134.369 115.528 133.597 117.138 134.168 118.774C134.344 119.26 134.83 119.873 135.283 120.158C136.776 121.123 138.722 120.594 139.502 119.017C140.442 117.096 139.167 114.932 137.019 114.823C136.592 114.798 136.306 114.84 135.988 114.949Z" fill="white"/>
<path d="M152.193 114.907C151.413 115.167 150.775 115.704 150.44 116.392C150.188 116.895 150.121 117.172 150.13 117.784C150.138 118.883 150.817 119.915 151.832 120.384C152.277 120.586 152.47 120.619 153.032 120.619C153.929 120.619 154.584 120.326 155.171 119.688C155.741 119.067 155.951 118.48 155.909 117.608C155.858 116.459 155.255 115.536 154.248 115.066C153.703 114.806 152.721 114.739 152.193 114.907Z" fill="white"/>
<path d="M142.354 121.601C141.792 121.877 141.541 122.322 141.541 123.026C141.541 123.53 141.566 123.622 141.801 123.916C142.321 124.553 142.379 124.57 144.669 124.595C146.9 124.629 147.404 124.57 147.857 124.218C148.192 123.966 148.461 123.437 148.461 123.018C148.461 122.431 147.966 121.718 147.429 121.517C147.286 121.458 146.33 121.424 144.954 121.424C142.832 121.424 142.698 121.433 142.354 121.601Z" fill="white"/>
<path d="M170.974 108.734C171.116 109.086 171.611 110.797 171.77 111.46C172.022 112.508 172.257 113.934 172.374 115.167C172.517 116.71 172.425 119.973 172.207 121.374C171.846 123.58 171.267 125.711 170.512 127.506C170.328 127.959 170.193 128.344 170.219 128.361C170.294 128.437 171.98 128.21 172.609 128.042C175.973 127.111 178.615 124.394 179.487 120.963C180.376 117.44 179.277 113.624 176.652 111.174C175.142 109.765 173.347 108.918 171.284 108.633C170.957 108.591 170.923 108.599 170.974 108.734Z" fill="white"/>
</g>
<defs>
<clipPath id="clip0_2_18">
<rect width="256" height="256" fill="white"/>
</clipPath>
</defs>
</svg>
